<?xml version="1.0" encoding="UTF-8"?>
<svg width="162px" height="165px" viewBox="0 0 162 165" version="1.1" xmlns="http://www.w3.org/2000/svg" xmlns:xlink="http://www.w3.org/1999/xlink">
    <title>编组 2</title>
    <g id="Page-1" stroke="none" stroke-width="1" fill="none" fill-rule="evenodd">
        <g id="编组-2" transform="translate(2.1944, 0)">
            <rect id="矩形" fill="#3476C6" x="71.8055879" y="13" width="9" height="9"></rect>
            <rect id="矩形" fill="#3476C6" x="102.805588" y="0" width="9" height="9"></rect>
            <rect id="矩形" fill="#3476C6" x="108.805588" y="18" width="9" height="9"></rect>
            <rect id="矩形" fill="#3476C6" x="91.8055879" y="12" width="4" height="4"></rect>
            <rect id="矩形" fill="#3476C6" x="105.805588" y="33" width="4" height="4"></rect>
            <rect id="矩形" fill="#3476C6" x="92.8055879" y="44" width="4" height="4"></rect>
            <rect id="矩形备份" fill="#3476C6" x="85.8055879" y="22" width="12" height="12"></rect>
            <path d="M35.027355,53.7430592 L63.1798685,53.7430592 C65.9925798,54.8397985 67.3989355,56.3034213 67.3989355,58.1339278 C67.3989355,59.9644343 65.9925798,61.9190276 63.1798685,63.9977078 L63.1798685,89.7365042 L94.4905165,137.08331 C97.3853875,141.676566 98.3235054,146.415255 97.3048702,151.299377 C96.2862349,156.183499 92.7344732,160.08191 86.649585,162.99461 L14.1664168,162.99461 C6.20991636,157.970663 1.62123608,153.711421 0.400375949,150.216884 C-0.820484181,146.722346 0.750717988,142.344488 5.11398246,137.08331 L35.027355,91.8941205 L35.027355,63.9977078 C31.7807573,61.6936019 30.1574585,59.7390085 30.1574585,58.1339278 C30.1574585,56.5288471 31.7807573,55.0652242 35.027355,53.7430592 Z" id="路径-5备份" stroke="#3476C6" stroke-width="3"></path>
            <path d="M114.944487,59.5534165 L120.399124,59.5534165 L120.399124,150.551633 C125.81709,158.552822 131.341601,162.553416 136.972659,162.553416 C142.603717,162.553416 148.23956,158.552822 153.880188,150.551633 L153.880188,59.5534165 L159.000832,59.5534165" id="路径-6" stroke="#11A1BD" stroke-width="3"></path>
            <path d="M123.142561,81.9093853 L123.142561,149.342769 C127.673571,156.38718 132.293685,159.909385 137.002903,159.909385 C141.712121,159.909385 146.42534,156.38718 151.142561,149.342769 L151.142561,95.2612988 C146.136201,91.8461708 141.271711,89.5265189 136.54909,88.302343 C131.826469,87.0781671 127.357626,84.9471812 123.142561,81.9093853 Z" id="路径-6" fill="#1A9FBA"></path>
            <path d="M46.1849849,134.034164 C37.5176767,132.244859 34.6372786,128.087626 27.8465575,126.029768 C23.3194102,124.657862 18.4670319,124.217941 13.2894226,124.710004 L0.801578061,143.737031 C0.222498081,147.591477 1.06308931,151.261482 3.32335174,154.747045 C5.58361418,158.232609 8.9056378,160.981797 13.2894226,162.99461 L87.1389829,162.99461 C92.115457,160.466617 95.3540911,156.852167 96.8548853,152.151259 C98.3556794,147.450351 97.8107581,142.627338 95.2201214,137.68222 L87.1389829,123.310718 C81.4599346,128.543321 75.3824847,132.325582 68.9066334,134.657501 C59.1928564,138.155378 54.8522931,135.823469 46.1849849,134.034164 Z" id="路径-5" fill="#3476C6"></path>
        </g>
    </g>
</svg>